<?xml version="1.0" encoding="UTF-8"?><svg id="Camada_2" xmlns="http://www.w3.org/2000/svg" viewBox="0 0 785.26 136.3"><defs><style>.cls-1{fill:#ffffff;}</style></defs><g id="Camada_1-2"><path class="cls-1" d="m62.63,32.17v4.76c0,13.71-4.19,22.27-13.52,26.65v.38c11.23,4.38,15.61,14.28,15.61,28.36v10.85c0,20.56-10.85,31.6-31.79,31.6H0V1.52h31.6c21.7,0,31.03,10.09,31.03,30.65Zm-41.69-11.61v35.22h8.19c7.81,0,12.56-3.43,12.56-14.09v-7.42c0-9.52-3.24-13.71-10.66-13.71h-10.09Zm0,54.26v40.93h11.99c7.04,0,10.85-3.24,10.85-13.14v-11.61c0-12.37-4-16.18-13.52-16.18h-9.33Z"/><path class="cls-1" d="m98.23,57.68h28.75v19.04h-28.75v39.03h36.17v19.04h-57.11V1.52h57.11v19.04h-36.17v37.12Z"/><path class="cls-1" d="m208.07,85.09v17.7c0,21.32-10.66,33.5-31.22,33.5s-31.22-12.18-31.22-33.5V33.5c0-21.32,10.66-33.5,31.22-33.5s31.22,12.18,31.22,33.5v12.95h-19.8v-14.28c0-9.52-4.19-13.14-10.85-13.14s-10.85,3.62-10.85,13.14v71.96c0,9.52,4.19,12.95,10.85,12.95s10.85-3.43,10.85-12.95v-19.04h19.8Z"/><path class="cls-1" d="m241.76,134.78h-20.94V1.52h20.94v57.11h23.8V1.52h21.32v133.26h-21.32v-57.11h-23.8v57.11Z"/><path class="cls-1" d="m323.05,57.68h28.75v19.04h-28.75v39.03h36.17v19.04h-57.11V1.52h57.11v19.04h-36.17v37.12Z"/><path class="cls-1" d="m415.95,134.78c-1.14-3.43-1.9-5.52-1.9-16.37v-20.94c0-12.37-4.19-16.94-13.71-16.94h-7.23v54.26h-20.94V1.52h31.6c21.7,0,31.03,10.09,31.03,30.65v10.47c0,13.71-4.38,22.46-13.71,26.84v.38c10.47,4.38,13.9,14.28,13.9,28.17v20.56c0,6.47.19,11.23,2.28,16.18h-21.32Zm-22.84-114.22v40.93h8.19c7.81,0,12.56-3.43,12.56-14.09v-13.14c0-9.52-3.24-13.71-10.66-13.71h-10.09Z"/><path class="cls-1" d="m447.74,58.63h38.07v19.04h-38.07v-19.04Z"/><path class="cls-1" d="m531.5,60.54h29.32v42.26c0,21.32-10.66,33.5-31.22,33.5s-31.22-12.18-31.22-33.5V33.5c0-21.32,10.66-33.5,31.22-33.5s31.22,12.18,31.22,33.5v12.95h-19.8v-14.28c0-9.52-4.19-13.14-10.85-13.14s-10.85,3.62-10.85,13.14v71.96c0,9.52,4.19,12.95,10.85,12.95s10.85-3.43,10.85-12.95v-24.56h-9.52v-19.04Z"/><path class="cls-1" d="m641.92,134.78h-21.13l-3.62-24.18h-25.7l-3.62,24.18h-19.23L589.95,1.52h30.65l21.32,133.26Zm-47.78-42.26h20.18l-9.9-67.39h-.38l-9.9,67.39Z"/><path class="cls-1" d="m695.41,134.78c-1.14-3.43-1.9-5.52-1.9-16.37v-20.94c0-12.37-4.19-16.94-13.71-16.94h-7.23v54.26h-20.94V1.52h31.6c21.7,0,31.03,10.09,31.03,30.65v10.47c0,13.71-4.38,22.46-13.71,26.84v.38c10.47,4.38,13.9,14.28,13.9,28.17v20.56c0,6.47.19,11.23,2.28,16.18h-21.32Zm-22.84-114.22v40.93h8.19c7.81,0,12.56-3.43,12.56-14.09v-13.14c0-9.52-3.24-13.71-10.66-13.71h-10.09Z"/><path class="cls-1" d="m749.09,57.68h28.75v19.04h-28.75v39.03h36.17v19.04h-57.11V1.52h57.11v19.04h-36.17v37.12Z"/></g></svg>