<?xml version="1.0" encoding="UTF-8"?><svg id="Calque_1" xmlns="http://www.w3.org/2000/svg" viewBox="0 0 781.76 111.84"><defs><style>.cls-1{fill:#e10628;}</style></defs><path class="cls-1" d="m535.48,109.59c-1.42.11-2.43.26-3.45.26h-12.58c-2.91,0-3.27-.31-3.4-3.19-.31-6.69-.5-13.4-.82-20.1-.45-9.2-1-18.4-1.43-27.6-.33-7.75-.46-15.5-.7-23.26-.13-4.17-.31-8.34-.5-13.2-.33.65-.62,1.32-.87,2-4.21,15.59-9.44,30.85-14.66,46.12-3.9,11.4-7.67,22.84-11.51,34.26-1.15,3.43-1.17,3.43-4.88,3.44-3,0-6.08-.09-9.12,0-1.89.07-2.78-.67-3.33-2.49-3.14-10.32-6.49-20.58-9.58-30.92-3.59-12.03-7.07-24.1-10.45-36.21-1.28-4.53-2.23-9.15-3.33-13.73-.08-.44-.3-.84-.62-1.15-1,9.38-1,18.8-1.57,28.19-.56,9.62-.95,19.25-1.47,28.87s-1.1,19-1.64,28.31c-2.82.82-13.82,1-17.82.37-.59-2.6,5.58-100.13,6.85-107.73.92-.07,1.93-.21,2.93-.22h19.82c2.83,0,2.86,0,3.71,2.75,5.36,17.09,10.85,34.15,16,51.31,2.47,8.21,4.31,16.62,6.45,24.94.15.42.34.83.57,1.22,4.11-13.57,8-27,12.24-40.24s8.9-26.59,13.36-39.82h25.6c2.19,35.94,4.1,71.74,6.2,107.82h0Z"/><path class="cls-1" d="m88.23,7.07c-1.35,4.93-2.75,10.05-4.23,15.38-2.14-.7-3.89-1.32-5.68-1.86-10.24-3.28-21.21-3.59-31.62-.89-12.7,3.37-20.92,11.59-24.27,24.3-2.81,9.99-2.17,20.63,1.8,30.21,4.71,11.25,13.38,17.68,25.22,20,6.1,1.1,12.35,1.1,18.45,0,.82-.14,1.62-.42,2.44-.6,1.42-.21,2.4-1.52,2.2-2.94-.05-7.54,0-15.09-.05-22.64-.08-.64-.21-1.27-.39-1.88h-17.65c-.9-2.65-1-12.61-.21-15.37h37.23c.1,1.07.26,2.08.26,3.09v48.11c0,3.07,0,3.11-3.13,4.09-11.79,3.82-24.17,5.49-36.55,4.93-6.72-.23-13.36-1.48-19.7-3.71-14.48-5.36-24.46-15.21-29.13-30s-4.4-29.56,1.78-43.92c5.94-13.92,16.52-23,30.72-27.84C51.88,0,68.2.39,84.52,5.2c.89.28,1.77.62,2.63,1,.39.26.75.55,1.08.87Z"/><path class="cls-1" d="m243.42,109.84h-17c-.42-3.54-.82-6.94-1.29-10.83-.78.83-1.34,1.34-1.81,1.93-9,11.26-23,12.58-32.63,9.24-8.52-3-13.32-9.27-15.55-17.59-1.17-4.35-1.8-8.83-1.9-13.33-.23-14.25-.09-28.51-.08-42.76,0-1.13.1-2.26.15-3.3,2.39-.75,14.68-.94,19.29-.31.1,1.21.31,2.51.31,3.81,0,12.68-.07,25.37.07,38.05.09,3.34.52,6.67,1.27,9.93,1.16,5.41,4.15,9.46,9.88,10.57,6.19,1.18,11.37-.78,15.39-5.68,2.64-3.31,4-7.46,3.85-11.69v-44.52c2.32-1,15.51-1.15,19.41-.32.07,1.14.19,2.36.19,3.58v54.4c0,5.34.29,10.68.44,16,.03.83,0,1.65,0,2.82h0Z"/><path class="cls-1" d="m142.45,59.29c1-6.17-2.21-11.67-7.67-13.47-4.93-1.62-9.91-1.24-14.9-.41-4.67.86-9.15,2.5-13.26,4.87-1.82-4-2.45-8.27-4.07-12.4.63-.52,1.3-1.01,2-1.44,9.1-4.72,18.89-6,29-5.6,3.25.13,6.46.65,9.59,1.53,10.09,3,16.08,9.91,18.23,20.07.8,3.8,1.23,7.67,1.29,11.56.18,9.32,0,18.65.09,28,.05,5.13.38,10.26.57,15.39v2.54c-5.68.27-11.28.13-17.19.1l-1.64-8.17c-.82.67-1.44,1.13-2,1.65-8.53,7.77-18.41,10.1-29.45,7-12.21-3.51-17.58-15.81-15.76-26.42,1.47-8.59,6.26-14.69,13.89-18.7,7.1-3.73,14.79-5.14,22.67-5.78,2.8-.22,5.62-.22,8.61-.32h0Zm.74,12.95c-7.3-.18-14.18.26-20.53,3.8-3.61,1.88-5.91,5.59-6,9.66-.24,6,2,9.89,7.66,11.41,8.34,2.25,17.51-3.58,18.82-12.15.55-3.96.05-8.08.05-12.72h0Z"/><path class="cls-1" d="m781.76,109.88h-14.24c-3-.06-3.16-.25-3.35-3.2-.16-2.46-.39-4.93-.64-8-.52.41-1.01.85-1.46,1.34-4.64,6.49-11.89,10.63-19.84,11.34-7.47.86-14.43-.48-20.44-5.2-5.1-4-7.7-9.62-9-15.8-.74-3.59-1.12-7.24-1.16-10.9-.13-14.56-.06-29.13-.06-43.69,0-1,.1-2,.17-3.29h19c.12,1.22.35,2.52.36,3.81v39.29c-.09,4.2.72,8.38,2.36,12.25,3.13,7,9.65,8.92,16.56,6.84,6.75-2.09,11.35-8.33,11.37-15.39.15-6.28.06-12.57.06-18.85v-27.89c1.23-.12,2.12-.26,3-.27h13.51c3,0,3.18.13,3.19,3.22v58.78c0,3.66.31,7.31.45,11,.2,1.27.16,2.62.16,4.61h0Z"/><path class="cls-1" d="m701.21,109.88h-15.01c-2.2,0-2.48-.34-2.84-2.5-.28-1.74-.51-3.5-.82-5.57-.53.23-1.03.53-1.49.89-4.8,5.12-10.79,7.71-17.67,8.66-4.16.58-8.39.24-12.4-1-10.49-3.32-17.16-13.59-15.92-24.52,1.14-10.84,7.1-17.58,16.62-21.84,8.11-3.61,16.74-4.44,25.44-4.91l3-.14c1.41-5.42-1.49-11.03-6.73-13-3.56-1.3-7.38-1.74-11.14-1.27-5.34.37-10.56,1.81-15.33,4.24-.73.39-1.53.63-2.56,1-.7-2.21-1.37-4.27-2-6.35s-1.17-4-1.78-6.1c3.37-2.2,7.09-3.8,11-4.73,7.08-1.95,14.45-2.62,21.77-2,8.35.72,15.72,3.45,21,10.37,3.15,4.24,5.1,9.25,5.65,14.5.33,2.6.5,5.21.51,7.83.06,7.64-.07,15.29,0,22.94.1,6.59.44,13.18.66,19.77.07,1.03.04,2.07.04,3.73h0Zm-20-30.64h0v-5.33c0-1.43-.69-2.14-2.12-2.06s-3.13.14-4.68.33c-4.15.49-8.3.95-12.17,2.75-5.88,2.74-8.52,7.64-7.46,14,.42,3.17,2.43,5.91,5.34,7.25,8.63,4.25,20.51-2.8,21.1-12.58.11-1.43.03-2.9.03-4.36h-.04Z"/><path class="cls-1" d="m311.24,10.77c.07,7.19.14,14.24.21,21.65h17.7c.88,2.34,1,11.38.31,14.49-1,.06-2.15.17-3.27.18h-12.26c-2.3,0-2.56.23-2.56,2.53,0,11.1-.06,22.21.05,33.31.06,2.2.43,4.38,1.1,6.47,1.22,4,3.78,5.81,7.92,5.89,2.09,0,4.18-.19,6.27-.29h2.22c.13,4.45.32,8.81.33,13.17-.11.78-.61,1.45-1.32,1.79-8.37,2-16.74,2.89-24.83-1.12-5.01-2.43-8.54-7.12-9.49-12.61-.88-4.09-1.37-8.25-1.48-12.43-.2-11.2-.07-22.42-.09-33.63,0-.82-.09-1.64-.14-2.51-2.2-1.07-4.43-.49-6.57-.54-4.17-.11-4.18-.05-4.2-4.15v-6.91c0-1,.14-2,.24-3.31l10.68-.43v-15.41c-.14-1.2.7-2.29,1.9-2.45,5.1-1.19,10.17-2.47,15.26-3.68.67-.07,1.35-.07,2.02,0h0Z"/><path class="cls-1" d="m608.53.88h20.61c.11,1.15.31,2.25.31,3.36v101.83c0,1.23-.17,2.45-.27,3.81h-20.18c-.2-.19-.28-.26-.35-.34-.08-.07-.14-.15-.19-.24-.09-.3-.15-.61-.17-.92V2.46c.05-.53.13-1.06.24-1.58Z"/><path class="cls-1" d="m597.69,110h-20.08c-.86-2.55-1-105.63-.25-108.83,2.33-.59,16.92-.71,20.26-.17.76,2.31.93,105,.07,109Z"/><path class="cls-1" d="m274.05,109.87h-19.4c-.8-2.42-1-105-.21-109.07,6.43-.15,12.93-.19,19.61,0v109.07Z"/><path class="cls-1" d="m566.15,109.72c-6.78.23-13,.27-19.68,0V32.72c.7-.2,1.42-.35,2.15-.43,5.02-.04,10.05-.04,15.08,0,2.07,0,2.32.27,2.45,2.32v75.2-.09h0Z"/><path class="cls-1" d="m364.1,59.87c-5.84,3.8-7.75,9.56-8.41,15.9-.71,6.71-.71,13.41,1.66,19.87,2.11,5.72,5.57,10.28,11.45,12.63.74.33,1.42.79,2,1.36-5.63-.5-11.14-1.99-16.26-4.39-13.46-6.67-15.39-22-11.29-32.06,1.21-2.81,3.14-5.25,5.6-7.08,4.47-3.47,9.67-5.25,15.25-6.23Z"/><path class="cls-1" d="m371.67,14.52c-.18.53-.19.68-.24.7-7.45,2.36-10.63,8.11-11.81,15.24-.85,5.6-.86,11.3-.05,16.91.24,3.08,1.8,5.91,4.27,7.76.44.43.85.89,1.22,1.38-6.06-1.74-11.25-3.74-15.33-7.92-7.21-7.37-6-21.68,3.67-28.09,2.74-1.71,5.7-3.06,8.79-4,3.12-.85,6.28-1.51,9.48-1.98h0Z"/><path class="cls-1" d="m383.83,109.85c.44-.53.54-.76.7-.83,6.41-2.66,9.16-8,10.41-14.36,1.06-6,1.04-12.14-.05-18.14-.51-3.5-2.64-6.56-5.74-8.27,5,1.21,9.69,2.9,13.79,6.06,9.82,7.59,8,23.31-1.57,29.9-3.98,2.55-8.44,4.25-13.1,5-1.33.29-2.68.4-4.44.64h0Z"/><path class="cls-1" d="m367.36,73.39c-1.26-3.63-.42-7.67,2.18-10.5,2.54-2.81,5.75-4.95,9.33-6.2,4.4-1.67,8.87-3.14,13.31-4.73,3.93-1.42,7.92-2.73,11.76-4.36,3.27-1.39,6.48-3.07,7.82-7.6.35.71.62,1.45.81,2.22.26,3.71-1.14,7.34-3.82,9.91-3.83,3.83-8.63,5.85-13.57,7.62-6,2.14-12.11,4-18.08,6.26-2.4,1.01-4.68,2.3-6.77,3.85-1.12.77-1.82,2.14-2.97,3.53Z"/><path class="cls-1" d="m556.45,0c6.48.07,10.93,4.53,10.88,10.9,0,6.17-4.78,10.53-11.34,10.44-6.25-.09-10.84-4.65-10.76-10.72S550-.07,556.45,0Z"/><path class="cls-1" d="m381.65,14.63c2.74.93,5.42,2.01,8.05,3.22,3.78,1.76,6.41,5.32,7,9.45.49,2.77-.78,5.56-3.2,7-2.74,1.51-6.11,1.24-8.58-.67-2.21-1.76-3.04-4.74-2.07-7.39.41-1.18.93-2.32,1.55-3.41,1.64-3,1.41-4.28-1.31-6.44-.56-.44-1.14-.85-1.7-1.27l.26-.49h0Z"/></svg>