<?xml version="1.0" encoding="UTF-8"?><svg id="Camada_2" xmlns="http://www.w3.org/2000/svg" viewBox="0 0 720.99 721"><defs><style>.cls-1{fill:#dbe3d5;}</style></defs><g id="Camada_1-2"><path class="cls-1" d="m521.27,37.69c3.4,1.7,3.83,4.26,2.26,7.4l-.97,1.94c-1.3,2.61-3.06,3.59-5.51,3,2.03,1.65,2.15,3.73.94,6.15l-1.73,3.46c-.46.92-.9,1.97-.79,2.94l-1.53-.76c-.05-.86.25-1.7.86-2.91l1.75-3.5c1.48-2.96.27-4.59-2.27-5.86l-2.32-1.16-4.97,9.95-1.46-.73,11.11-22.24,4.64,2.32Zm-6.3,10.55c2.61,1.3,4.5,1.33,5.99-1.65l1.05-2.1c1.19-2.38.98-4.27-1.43-5.48l-3.15-1.57-4.81,9.63,2.35,1.17Z"/><path class="cls-1" d="m537.65,59.66l-.74,1.29-5.88-3.39-5.18,8.99,7.08,4.08-.74,1.29-8.49-4.9,12.42-21.54,8.49,4.9-.74,1.29-7.08-4.08-5,8.68,5.88,3.39Z"/><path class="cls-1" d="m559.31,66.85l-.29.45-1.31-.86.35-.53c1.44-2.2,1.7-4.41-.55-5.89-2.26-1.48-4.16-.39-5.6,1.8-3.31,5.05,4.14,10.07.38,15.8-1.97,3-4.72,4.34-7.89,2.25-3.18-2.09-3.04-5.14-1.07-8.14l.7-1.07,1.31.86-.76,1.16c-1.46,2.23-1.65,4.4.63,5.9,2.29,1.5,4.2.46,5.66-1.76,3.27-4.99-4.18-10.01-.38-15.8,2.05-3.12,4.74-4.24,7.82-2.26,3.15,2.07,2.98,5.1,1.01,8.1Z"/><path class="cls-1" d="m560.04,90.52l13.95-18.75-4.05-3.01.89-1.2,9.43,7.02-.89,1.2-4.07-3.03-13.95,18.75-1.31-.98Z"/><path class="cls-1" d="m576.62,96.44l-4.49,3.42-1.14-.96,20.17-15.59,1.82,1.53-11.76,22.64-1.25-1.05,2.59-5.02-5.93-4.98Zm1.1-.93l5.55,4.66,7.54-14.68-13.09,10.02Z"/><path class="cls-1" d="m593.34,110.39c-1.84,1.93-2.54,4.11-.55,5.99s4.12,1.08,5.96-.85l13-13.66,1.11,1.05-12.95,13.61c-2.45,2.57-5.41,3.53-8.17.91-2.75-2.62-1.97-5.65.47-8.23l12.95-13.61,1.18,1.13-13,13.66Z"/><path class="cls-1" d="m624.15,114.55c2.59,2.78,2.1,5.33-.47,7.72l-1.58,1.48c-2.13,1.99-4.13,2.29-6.21.89,1.33,2.26.71,4.25-1.27,6.09l-2.83,2.64c-.75.7-1.54,1.53-1.77,2.48l-1.16-1.25c.26-.82.83-1.5,1.82-2.42l2.86-2.66c2.42-2.25,1.86-4.21-.08-6.29l-1.77-1.9-8.13,7.58-1.11-1.2,18.19-16.95,3.54,3.79Zm-9.59,7.68c1.99,2.13,3.75,2.82,6.19.54l1.71-1.6c1.95-1.82,2.42-3.66.58-5.63l-2.4-2.57-7.87,7.34,1.79,1.92Z"/><path class="cls-1" d="m621.92,141.2l-5.04,2.53-.95-1.15,22.7-11.59,1.51,1.84-15.74,20.08-1.04-1.26,3.47-4.45-4.91-5.99Zm1.26-.71l4.6,5.6,10.12-13.03-14.72,7.43Z"/><path class="cls-1" d="m630.86,161.44l-.87-1.21,20.18-14.52,1.24,1.73-12.68,18.31,17.04-12.26.87,1.21-20.18,14.52-1.06-1.47,13.45-19.26-17.99,12.94Z"/><path class="cls-1" d="m644.03,180.7l19.75-12.48-2.69-4.26,1.26-.8,6.28,9.94-1.26.8-2.71-4.29-19.75,12.48-.87-1.38Z"/><path class="cls-1" d="m681.59,199.63c-1.29-2.57-3.34-3.17-6.07-1.8l-.89.45c-2,1.01-2.96,2.88-2.09,4.86l1.72,3.43,2.48-1.24.73,1.46-2.48,1.24.61,1.21-1.33.67-.61-1.21-8,4.02c-1.11.56-2,1-2.63,2.04l-.77-1.52c.46-.67,1-1.1,1.89-1.54-1.89.12-3.35-.9-4.2-2.58-1.47-2.92-.03-5.27,3.02-6.8l2.09-1.05c2.09-1.05,4.4-1.06,6.07.61-.43-2.29.91-4.12,3.04-5.18l.54-.27c3.55-1.79,6.4-1.03,8.2,2.56l1.58,3.14-1.33.67-1.58-3.14Zm-10.28,4.37c-1.18-2.03-3.25-2.42-5.47-1.31l-2.03,1.02c-2.32,1.16-3.41,2.95-2.26,5.23.93,1.84,2.74,2.6,4.72,1.64l6.66-3.35-1.63-3.24Z"/><path class="cls-1" d="m693.39,238.3l-1.92.74-.56-1.46,2.02-.78c2.49-.96,4.01-2.64,3.02-5.2-.98-2.55-3.24-2.79-5.73-1.83l-12.07,4.64c-2.49.96-3.97,2.63-2.99,5.18s3.21,2.8,5.69,1.84l2.75-1.06.56,1.46-2.65,1.02c-3.35,1.29-6.43.8-7.79-2.75-1.36-3.55.59-5.97,3.94-7.26l11.87-4.57c3.35-1.29,6.43-.8,7.79,2.75,1.36,3.55-.59,5.97-3.94,7.26Z"/><path class="cls-1" d="m684.94,254.53l-5.62.46-.45-1.42,25.38-2.26.71,2.27-22.1,12.74-.49-1.56,4.88-2.83-2.32-7.39Zm1.43-.19l2.17,6.91,14.26-8.3-16.43,1.39Z"/><path class="cls-1" d="m699.61,279.98l-1.45.36-1.54-6.24-10.93,2.71-.39-1.59,24.14-5.97,2.27,9.17-1.45.36-1.88-7.59-10.31,2.55,1.54,6.24Z"/><path class="cls-1" d="m704.21,299.22l-1.47.28-1.25-6.67-10.19,1.91,1.51,8.03-1.47.28-1.81-9.64,24.44-4.59,1.81,9.64-1.47.28-1.51-8.03-9.84,1.85,1.25,6.67Z"/><path class="cls-1" d="m714.02,333.54l-1.84.17-.14-1.56,1.95-.18c2.65-.24,4.58-1.45,4.33-4.17-.25-2.72-2.36-3.57-5.01-3.33l-12.88,1.16c-2.65.24-4.54,1.44-4.3,4.17.25,2.72,2.32,3.57,4.97,3.33l5.34-.48-.3-3.29,1.49-.13.44,4.85-6.72.61c-3.57.32-6.4-.99-6.74-4.78-.34-3.79,2.21-5.59,5.78-5.91l12.67-1.15c3.57-.32,6.4.99,6.74,4.78.34,3.79-2.21,5.59-5.78,5.91Z"/><path class="cls-1" d="m695.86,344.72l24.85-.82.05,1.63-23.36.77.26,7.81-1.49.05-.31-9.44Z"/><path class="cls-1" d="m701.68,365.88l-5.47-1.39.04-1.49,24.74,6.1-.06,2.38-25.04,4.87.04-1.63,5.54-1.09.21-7.74Zm1.41.29l-.2,7.24,16.18-3.22-15.99-4.02Z"/><path class="cls-1" d="m713.09,397.77l-2.05-.18.14-1.56,2.16.19c2.65.24,4.76-.61,5-3.33.24-2.72-1.68-3.93-4.34-4.17l-12.88-1.15c-2.65-.24-4.73.61-4.97,3.34-.24,2.72,1.65,3.93,4.3,4.16l2.94.26-.14,1.56-2.83-.25c-3.57-.32-6.12-2.12-5.79-5.9.34-3.79,3.17-5.1,6.74-4.78l12.67,1.13c3.57.32,6.12,2.12,5.79,5.9-.34,3.79-3.17,5.1-6.74,4.78Z"/><path class="cls-1" d="m705.22,415.72l-1.48-.22,1-6.71-10.26-1.52-1.2,8.08-1.48-.22,1.44-9.7,24.59,3.65-1.44,9.7-1.48-.22,1.2-8.08-9.91-1.47-1,6.71Z"/><path class="cls-1" d="m706.48,438.52l-.52-.11.32-1.53.63.13c2.57.54,4.72-.03,5.28-2.67.55-2.64-1.16-4.02-3.73-4.55-5.91-1.23-7.85,7.54-14.56,6.14-3.51-.73-5.77-2.8-4.99-6.52.78-3.72,3.67-4.71,7.18-3.98l1.25.26-.32,1.53-1.36-.28c-2.61-.54-4.7.07-5.25,2.75-.56,2.68,1.11,4.08,3.72,4.62,5.84,1.22,7.78-7.56,14.56-6.14,3.65.76,5.68,2.86,4.97,6.44-.77,3.69-3.65,4.64-7.17,3.91Z"/><path class="cls-1" d="m691.24,471.85l-2.14,6.18-1.41-.49,2.14-6.18,1.41.49Z"/><path class="cls-1" d="m683.39,521.12c-1.7,3.4-4.25,3.83-7.4,2.26l-1.94-.97c-2.61-1.3-3.59-3.06-3-5.51-1.65,2.03-3.73,2.15-6.15.94l-3.46-1.73c-.92-.46-1.97-.9-2.94-.79l.76-1.53c.86-.05,1.7.25,2.91.86l3.5,1.75c2.96,1.48,4.59.27,5.86-2.27l1.16-2.32-9.95-4.97.73-1.46,22.24,11.11-2.32,4.64Zm-10.55-6.3c-1.3,2.61-1.33,4.5,1.65,5.99l2.1,1.05c2.38,1.19,4.27.98,5.48-1.43l1.57-3.15-9.63-4.81-1.17,2.35Z"/><path class="cls-1" d="m661.43,537.51l-1.29-.74,3.38-5.88-8.99-5.17-4.07,7.08-1.29-.74,4.89-8.5,21.55,12.4-4.89,8.5-1.29-.74,4.07-7.08-8.68-5-3.38,5.88Z"/><path class="cls-1" d="m654.25,559.18l-.45-.29.86-1.31.53.35c2.2,1.44,4.41,1.7,5.89-.56,1.48-2.26.39-4.16-1.81-5.6-5.05-3.31-10.07,4.14-15.8.39-3-1.97-4.34-4.72-2.26-7.89,2.08-3.18,5.14-3.04,8.14-1.08l1.07.7-.86,1.31-1.16-.76c-2.23-1.46-4.4-1.65-5.9.64-1.5,2.29-.46,4.2,1.77,5.66,4.99,3.27,10.01-4.18,15.8-.39,3.12,2.05,4.24,4.74,2.27,7.82-2.06,3.15-5.1,2.98-8.1,1.02Z"/><path class="cls-1" d="m630.58,559.91l18.75,13.94,3.01-4.05,1.2.89-7.01,9.43-1.2-.89,3.03-4.08-18.75-13.94.97-1.31Z"/><path class="cls-1" d="m624.67,576.5l-3.42-4.49.96-1.14,15.6,20.16-1.53,1.82-22.65-11.75,1.05-1.25,5.02,2.58,4.97-5.94Zm.93,1.1l-4.65,5.55,14.68,7.53-10.03-13.09Z"/><path class="cls-1" d="m610.73,593.22c-1.93-1.84-4.11-2.53-5.99-.55-1.88,1.98-1.08,4.12.85,5.96l13.67,13-1.05,1.11-13.62-12.95c-2.57-2.45-3.53-5.41-.91-8.17,2.62-2.75,5.65-1.98,8.23.47l13.62,12.95-1.13,1.18-13.67-13Z"/><path class="cls-1" d="m606.57,624.04c-2.78,2.59-5.33,2.1-7.72-.47l-1.48-1.58c-1.99-2.13-2.29-4.13-.89-6.21-2.26,1.33-4.25.71-6.09-1.27l-2.64-2.83c-.7-.75-1.53-1.54-2.48-1.77l1.25-1.16c.82.25,1.5.83,2.42,1.82l2.67,2.86c2.25,2.42,4.21,1.85,6.29-.08l1.9-1.77-7.58-8.13,1.19-1.11,16.96,18.18-3.79,3.54Zm-7.68-9.59c-2.13,1.99-2.82,3.75-.54,6.19l1.6,1.71c1.82,1.95,3.66,2.41,5.63.57l2.57-2.4-7.34-7.87-1.92,1.79Z"/><path class="cls-1" d="m579.93,621.82l-2.53-5.04,1.15-.95,11.6,22.69-1.84,1.51-20.08-15.73,1.26-1.04,4.45,3.47,5.98-4.91Zm.71,1.26l-5.6,4.6,13.04,10.11-7.44-14.71Z"/><path class="cls-1" d="m559.69,630.77l1.21-.87,14.53,20.18-1.73,1.25-18.32-12.68,12.27,17.04-1.21.87-14.53-20.18,1.47-1.06,19.27,13.45-12.95-17.99Z"/><path class="cls-1" d="m540.45,643.94l12.5,19.75,4.26-2.7.8,1.26-9.94,6.29-.8-1.26,4.29-2.72-12.5-19.75,1.38-.87Z"/><path class="cls-1" d="m521.53,681.51c2.57-1.29,3.17-3.34,1.79-6.07l-.45-.89c-1.01-2-2.88-2.96-4.87-2.08l-3.43,1.72,1.25,2.47-1.46.73-1.25-2.47-1.21.61-.67-1.33,1.21-.61-4.03-7.99c-.56-1.11-1.01-2-2.04-2.63l1.52-.77c.67.46,1.1,1,1.55,1.89-.12-1.89.9-3.35,2.58-4.2,2.92-1.47,5.27-.03,6.81,3.01l1.05,2.09c1.05,2.09,1.06,4.4-.6,6.07,2.29-.44,4.12.91,5.19,3.04l.27.54c1.79,3.55,1.03,6.4-2.55,8.2l-3.14,1.58-.67-1.33,3.14-1.58Zm-4.38-10.28c2.03-1.18,2.42-3.25,1.3-5.47l-1.02-2.03c-1.17-2.32-2.95-3.41-5.23-2.26-1.84.93-2.6,2.74-1.64,4.72l3.35,6.66,3.24-1.63Z"/><path class="cls-1" d="m482.86,693.34l-.74-1.92,1.46-.56.78,2.02c.96,2.49,2.65,4,5.2,3.02,2.55-.98,2.79-3.24,1.83-5.73l-4.65-12.07c-.96-2.49-2.63-3.97-5.19-2.99-2.55.98-2.8,3.21-1.84,5.7l1.06,2.75-1.46.56-1.02-2.65c-1.29-3.35-.8-6.43,2.74-7.8,3.55-1.37,5.98.59,7.27,3.94l4.57,11.87c1.29,3.35.8,6.43-2.74,7.8-3.55,1.37-5.98-.59-7.27-3.94Z"/><path class="cls-1" d="m466.63,684.9l-.46-5.63,1.42-.45,2.28,25.39-2.27.71-12.75-22.1,1.56-.49,2.84,4.88,7.39-2.32Zm.19,1.43l-6.91,2.17,8.31,14.26-1.4-16.43Z"/><path class="cls-1" d="m441.2,699.57l-.36-1.45,6.24-1.55-2.71-10.93,1.59-.39,5.98,24.13-9.17,2.27-.36-1.45,7.58-1.88-2.55-10.31-6.24,1.55Z"/><path class="cls-1" d="m421.95,704.18l-.28-1.47,6.67-1.26-1.92-10.19-8.03,1.51-.28-1.47,9.64-1.82,4.6,24.44-9.64,1.82-.28-1.47,8.03-1.51-1.86-9.84-6.67,1.26Z"/><path class="cls-1" d="m387.64,714.01l-.17-1.84,1.56-.14.18,1.95c.24,2.65,1.45,4.58,4.18,4.33,2.72-.25,3.57-2.36,3.33-5.01l-1.17-12.88c-.24-2.65-1.45-4.54-4.17-4.29-2.72.25-3.57,2.32-3.33,4.98l.49,5.34,3.29-.3.14,1.49-4.85.44-.61-6.72c-.33-3.57.99-6.4,4.77-6.75,3.79-.34,5.59,2.2,5.91,5.78l1.15,12.67c.33,3.57-.99,6.4-4.77,6.75-3.79.34-5.59-2.2-5.91-5.78Z"/><path class="cls-1" d="m376.46,695.85l.83,24.85-1.63.05-.78-23.36-7.81.26-.05-1.49,9.44-.32Z"/><path class="cls-1" d="m355.3,701.69l1.39-5.47,1.49.04-6.09,24.75-2.38-.06-4.88-25.04,1.63.04,1.1,5.54,7.74.2Zm-.29,1.41l-7.24-.19,3.23,16.18,4.01-15.99Z"/><path class="cls-1" d="m323.42,713.11l.18-2.05,1.56.14-.19,2.16c-.24,2.65.61,4.76,3.34,5,2.72.24,3.93-1.68,4.16-4.34l1.14-12.88c.24-2.65-.62-4.73-3.34-4.97-2.72-.24-3.93,1.65-4.16,4.3l-.26,2.94-1.56-.14.25-2.83c.32-3.57,2.11-6.12,5.9-5.79,3.79.34,5.1,3.16,4.79,6.74l-1.12,12.67c-.32,3.57-2.11,6.12-5.9,5.79-3.79-.34-5.1-3.16-4.79-6.74Z"/><path class="cls-1" d="m305.44,705.25l.22-1.48,6.71.99,1.52-10.26-8.08-1.2.22-1.48,9.7,1.43-3.64,24.59-9.7-1.43.22-1.48,8.08,1.2,1.47-9.91-6.71-.99Z"/><path class="cls-1" d="m282.65,706.52l.11-.52,1.53.32-.13.63c-.54,2.57.03,4.72,2.68,5.27s4.01-1.16,4.55-3.73c1.23-5.91-7.55-7.85-6.15-14.56.73-3.51,2.8-5.77,6.52-4.99,3.72.77,4.72,3.67,3.98,7.18l-.26,1.25-1.53-.32.28-1.36c.54-2.61-.07-4.7-2.75-5.25-2.68-.56-4.08,1.11-4.62,3.72-1.22,5.84,7.56,7.78,6.15,14.56-.76,3.65-2.85,5.68-6.44,4.97-3.69-.77-4.65-3.65-3.91-7.16Z"/><path class="cls-1" d="m249.31,691.29l-6.18-2.14.49-1.41,6.18,2.14-.49,1.41Z"/><path class="cls-1" d="m200.04,683.47c-3.4-1.7-3.83-4.25-2.26-7.4l.97-1.94c1.3-2.61,3.06-3.59,5.51-3.01-2.04-1.65-2.15-3.73-.94-6.15l1.73-3.46c.46-.92.9-1.97.79-2.94l1.53.76c.05.86-.25,1.7-.85,2.91l-1.74,3.5c-1.47,2.96-.26,4.59,2.28,5.86l2.32,1.16,4.96-9.95,1.46.73-11.09,22.25-4.64-2.31Zm6.29-10.55c-2.61-1.3-4.5-1.33-5.99,1.66l-1.05,2.1c-1.19,2.38-.98,4.27,1.44,5.48l3.15,1.57,4.8-9.63-2.35-1.17Z"/><path class="cls-1" d="m183.65,661.52l.74-1.29,5.88,3.38,5.17-8.99-7.08-4.07.74-1.29,8.5,4.89-12.39,21.56-8.5-4.89.74-1.29,7.08,4.07,4.99-8.68-5.88-3.38Z"/><path class="cls-1" d="m161.96,654.35l.29-.45,1.31.86-.35.53c-1.44,2.2-1.7,4.41.56,5.89s4.16.39,5.6-1.81c3.31-5.05-4.15-10.07-.39-15.8,1.97-3,4.71-4.34,7.89-2.26,3.18,2.08,3.05,5.14,1.08,8.14l-.7,1.07-1.31-.86.76-1.16c1.46-2.23,1.65-4.4-.64-5.9-2.29-1.5-4.2-.46-5.66,1.77-3.27,4.99,4.19,10.01.39,15.8-2.04,3.12-4.73,4.24-7.81,2.27-3.15-2.06-2.99-5.1-1.02-8.1Z"/><path class="cls-1" d="m161.22,630.67l-13.94,18.76,4.05,3.01-.89,1.2-9.44-7.01.89-1.2,4.08,3.03,13.94-18.76,1.31.97Z"/><path class="cls-1" d="m144.63,624.77l4.49-3.42,1.14.96-20.15,15.6-1.82-1.53,11.74-22.65,1.25,1.05-2.58,5.02,5.94,4.97Zm-1.1.93l-5.56-4.65-7.53,14.69,13.08-10.04Z"/><path class="cls-1" d="m127.9,610.84c1.83-1.93,2.53-4.11.55-5.99-1.98-1.88-4.12-1.08-5.96.86l-12.99,13.67-1.11-1.05,12.94-13.62c2.45-2.57,5.41-3.53,8.17-.91,2.76,2.62,1.98,5.65-.47,8.23l-12.94,13.62-1.18-1.13,12.99-13.67Z"/><path class="cls-1" d="m97.08,606.7c-2.59-2.78-2.1-5.32.47-7.72l1.58-1.48c2.13-1.99,4.12-2.3,6.21-.89-1.33-2.26-.71-4.25,1.26-6.09l2.83-2.64c.75-.7,1.54-1.53,1.77-2.48l1.16,1.25c-.25.82-.83,1.5-1.82,2.43l-2.86,2.67c-2.41,2.25-1.85,4.21.09,6.29l1.77,1.9,8.13-7.59,1.11,1.19-18.17,16.97-3.54-3.79Zm9.59-7.69c-1.99-2.13-3.75-2.82-6.19-.54l-1.71,1.6c-1.95,1.82-2.41,3.66-.57,5.63l2.4,2.57,7.87-7.34-1.79-1.92Z"/><path class="cls-1" d="m99.29,580.07l5.04-2.54.95,1.15-22.69,11.61-1.51-1.84,15.72-20.09,1.04,1.26-3.46,4.46,4.92,5.98Zm-1.26.71l-4.6-5.6-10.11,13.04,14.71-7.44Z"/><path class="cls-1" d="m90.33,559.82l.87,1.21-20.17,14.54-1.25-1.73,12.67-18.32-17.03,12.27-.87-1.21,20.17-14.54,1.06,1.47-13.44,19.27,17.98-12.96Z"/><path class="cls-1" d="m77.15,540.59l-19.75,12.5,2.7,4.26-1.26.8-6.29-9.93,1.26-.8,2.72,4.29,19.75-12.5.87,1.38Z"/><path class="cls-1" d="m39.57,521.7c1.29,2.57,3.35,3.17,6.07,1.79l.89-.45c2-1.01,2.96-2.88,2.08-4.87l-1.73-3.43-2.47,1.25-.74-1.46,2.47-1.25-.61-1.21,1.33-.67.61,1.21,7.99-4.03c1.11-.56,2-1.01,2.63-2.04l.77,1.52c-.46.67-1,1.1-1.89,1.55,1.89-.12,3.35.9,4.2,2.58,1.47,2.92.03,5.27-3.01,6.81l-2.09,1.05c-2.09,1.05-4.4,1.06-6.07-.6.44,2.29-.91,4.12-3.03,5.19l-.54.27c-3.55,1.79-6.4,1.04-8.2-2.55l-1.58-3.14,1.33-.67,1.58,3.14Zm10.28-4.38c1.18,2.03,3.25,2.42,5.47,1.3l2.03-1.02c2.32-1.17,3.41-2.95,2.26-5.23-.93-1.84-2.74-2.6-4.72-1.64l-6.66,3.36,1.63,3.24Z"/><path class="cls-1" d="m27.73,483.02l1.92-.74.56,1.46-2.02.78c-2.49.96-4,2.65-3.02,5.2.98,2.55,3.24,2.78,5.73,1.82l12.06-4.65c2.49-.96,3.97-2.64,2.99-5.19-.98-2.55-3.21-2.8-5.7-1.84l-2.75,1.06-.56-1.46,2.65-1.02c3.35-1.29,6.43-.8,7.8,2.74,1.37,3.55-.59,5.98-3.93,7.27l-11.86,4.58c-3.35,1.29-6.43.8-7.8-2.74-1.37-3.55.59-5.98,3.93-7.27Z"/><path class="cls-1" d="m36.16,466.79l5.62-.47.45,1.42-25.38,2.29-.71-2.27,22.09-12.76.49,1.56-4.88,2.84,2.32,7.39Zm-1.43.19l-2.17-6.91-14.25,8.32,16.42-1.41Z"/><path class="cls-1" d="m21.47,441.35l1.45-.36,1.55,6.24,10.93-2.72.39,1.59-24.13,6-2.28-9.17,1.45-.36,1.88,7.58,10.31-2.56-1.55-6.24Z"/><path class="cls-1" d="m16.86,422.12l1.47-.28,1.26,6.67,10.19-1.92-1.52-8.03,1.47-.28,1.82,9.63-24.43,4.61-1.82-9.63,1.47-.28,1.52,8.03,9.84-1.86-1.26-6.67Z"/><path class="cls-1" d="m7.02,387.82l1.84-.17.14,1.56-1.95.18c-2.65.24-4.57,1.45-4.33,4.18.25,2.72,2.36,3.56,5.01,3.32l12.87-1.18c2.65-.24,4.54-1.45,4.29-4.17-.25-2.72-2.32-3.57-4.98-3.33l-5.34.49.3,3.29-1.49.14-.44-4.85,6.72-.61c3.57-.33,6.4.98,6.75,4.77.35,3.78-2.2,5.59-5.77,5.91l-12.66,1.16c-3.57.33-6.4-.98-6.75-4.77-.35-3.78,2.2-5.59,5.77-5.91Z"/><path class="cls-1" d="m25.16,376.63l-24.85.84-.06-1.63,23.36-.79-.26-7.81,1.49-.05.32,9.44Z"/><path class="cls-1" d="m19.32,355.47l5.47,1.38-.04,1.49-24.75-6.07.06-2.38,25.03-4.9-.04,1.63-5.54,1.1-.2,7.74Zm-1.41-.29l.19-7.24-16.18,3.24,15.99,4Z"/><path class="cls-1" d="m7.88,323.59l2.05.18-.14,1.56-2.16-.19c-2.65-.23-4.76.61-5,3.34-.24,2.72,1.69,3.93,4.34,4.16l12.88,1.14c2.65.23,4.73-.62,4.97-3.34.24-2.72-1.65-3.92-4.3-4.16l-2.94-.26.14-1.56,2.83.25c3.57.32,6.12,2.11,5.79,5.89-.33,3.79-3.16,5.1-6.73,4.79l-12.67-1.12c-3.57-.32-6.12-2.11-5.79-5.89.33-3.79,3.16-5.1,6.73-4.79Z"/><path class="cls-1" d="m15.72,305.61l1.48.22-.99,6.71,10.26,1.51,1.19-8.08,1.48.22-1.43,9.7-24.6-3.62,1.43-9.7,1.48.22-1.19,8.08,9.91,1.46.99-6.71Z"/><path class="cls-1" d="m14.45,282.82l.52.11-.32,1.53-.63-.13c-2.57-.53-4.72.03-5.27,2.68-.55,2.64,1.16,4.01,3.73,4.55,5.91,1.23,7.84-7.55,14.55-6.15,3.51.73,5.77,2.79,4.99,6.52-.77,3.72-3.66,4.72-7.18,3.99l-1.25-.26.32-1.53,1.36.28c2.61.54,4.7-.08,5.25-2.75.56-2.68-1.11-4.08-3.72-4.62-5.84-1.21-7.77,7.56-14.55,6.15-3.65-.76-5.68-2.85-4.97-6.44.77-3.69,3.65-4.65,7.16-3.92Z"/><path class="cls-1" d="m29.66,249.47l2.14-6.18,1.41.49-2.14,6.18-1.41-.49Z"/><path class="cls-1" d="m37.46,200.19c1.69-3.4,4.25-3.84,7.4-2.27l1.94.97c2.61,1.3,3.6,3.06,3.01,5.51,1.65-2.04,3.73-2.15,6.15-.95l3.47,1.73c.92.46,1.97.9,2.94.79l-.76,1.53c-.86.05-1.7-.25-2.91-.85l-3.5-1.74c-2.96-1.47-4.59-.26-5.86,2.28l-1.16,2.32,9.95,4.96-.73,1.46-22.26-11.08,2.31-4.64Zm10.56,6.29c1.3-2.61,1.33-4.5-1.66-5.99l-2.1-1.05c-2.38-1.19-4.27-.98-5.48,1.44l-1.57,3.15,9.63,4.8,1.17-2.35Z"/><path class="cls-1" d="m59.4,183.8l1.29.74-3.38,5.88,8.99,5.16,4.07-7.08,1.29.74-4.88,8.5-21.56-12.38,4.88-8.5,1.29.74-4.07,7.08,8.68,4.99,3.38-5.88Z"/><path class="cls-1" d="m66.55,162.12l.45.29-.86,1.31-.54-.35c-2.2-1.44-4.41-1.7-5.89.56-1.48,2.26-.39,4.16,1.81,5.6,5.05,3.31,10.06-4.16,15.8-.4,3,1.96,4.35,4.71,2.27,7.89s-5.14,3.05-8.14,1.08l-1.07-.7.86-1.31,1.16.76c2.23,1.46,4.4,1.65,5.9-.64,1.5-2.29.46-4.2-1.77-5.66-4.99-3.27-10,4.19-15.8.4-3.12-2.04-4.25-4.73-2.27-7.81,2.06-3.15,5.1-2.99,8.1-1.03Z"/><path class="cls-1" d="m90.24,161.35l-18.77-13.93-3.01,4.05-1.2-.89,7.01-9.44,1.2.89-3.03,4.08,18.77,13.93-.97,1.31Z"/><path class="cls-1" d="m96.12,144.77l3.43,4.49-.96,1.14-15.61-20.14,1.53-1.83,22.66,11.72-1.05,1.25-5.02-2.58-4.97,5.94Zm-.93-1.1l4.65-5.56-14.69-7.51,10.04,13.07Z"/><path class="cls-1" d="m110.04,128.03c1.93,1.83,4.11,2.53,6,.55,1.88-1.98,1.07-4.12-.86-5.96l-13.68-12.98,1.05-1.11,13.63,12.94c2.58,2.45,3.53,5.41.92,8.17s-5.65,1.98-8.23-.46l-13.63-12.94,1.12-1.19,13.68,12.98Z"/><path class="cls-1" d="m114.18,97.2c2.78-2.59,5.32-2.11,7.72.46l1.48,1.58c1.99,2.13,2.3,4.12.9,6.21,2.26-1.33,4.25-.71,6.09,1.26l2.64,2.83c.7.75,1.53,1.53,2.48,1.77l-1.25,1.16c-.82-.25-1.5-.83-2.43-1.82l-2.67-2.85c-2.26-2.41-4.21-1.85-6.29.09l-1.89,1.77,7.59,8.12-1.19,1.12-16.98-18.17,3.79-3.54Zm7.69,9.58c2.13-1.99,2.82-3.75.54-6.19l-1.6-1.71c-1.82-1.95-3.66-2.41-5.64-.57l-2.57,2.4,7.35,7.86,1.92-1.79Z"/><path class="cls-1" d="m140.81,99.4l2.54,5.04-1.15.95-11.63-22.68,1.84-1.51,20.1,15.71-1.26,1.04-4.46-3.46-5.98,4.92Zm-.71-1.26l5.6-4.6-13.05-10.1,7.45,14.71Z"/><path class="cls-1" d="m161.06,90.42l-1.21.87-14.54-20.17,1.73-1.25,18.33,12.66-12.28-17.03,1.21-.87,14.54,20.17-1.47,1.06-19.27-13.43,12.96,17.98Z"/><path class="cls-1" d="m180.29,77.23l-12.52-19.74-4.26,2.7-.8-1.26,9.93-6.3.8,1.26-4.29,2.72,12.52,19.74-1.38.87Z"/><path class="cls-1" d="m199.15,39.65c-2.57,1.3-3.16,3.35-1.79,6.07l.45.89c1.01,2,2.89,2.96,4.87,2.08l3.42-1.73-1.25-2.47,1.46-.74,1.25,2.47,1.21-.61.67,1.33-1.21.61,4.03,7.99c.56,1.11,1.01,2,2.04,2.63l-1.52.77c-.67-.46-1.1-1-1.55-1.88.12,1.89-.89,3.36-2.57,4.2-2.92,1.47-5.27.04-6.81-3.01l-1.06-2.09c-1.06-2.09-1.06-4.4.6-6.07-2.29.44-4.12-.91-5.19-3.03l-.27-.54c-1.79-3.55-1.04-6.4,2.54-8.21l3.14-1.58.67,1.33-3.14,1.58Zm4.39,10.28c-2.03,1.18-2.42,3.25-1.3,5.47l1.02,2.03c1.17,2.31,2.95,3.4,5.23,2.25,1.84-.93,2.59-2.74,1.63-4.72l-3.36-6.66-3.23,1.63Z"/><path class="cls-1" d="m237.82,27.78l.74,1.92-1.46.56-.78-2.02c-.96-2.49-2.65-4-5.2-3.02s-2.78,3.25-1.82,5.73l4.66,12.06c.96,2.49,2.64,3.97,5.19,2.98,2.55-.99,2.8-3.21,1.83-5.7l-1.06-2.75,1.46-.56,1.02,2.65c1.29,3.35.81,6.43-2.74,7.8-3.55,1.37-5.98-.58-7.27-3.93l-4.58-11.86c-1.29-3.35-.81-6.43,2.74-7.8,3.55-1.37,5.98.58,7.27,3.93Z"/><path class="cls-1" d="m254.06,36.21l.47,5.63-1.42.45-2.3-25.38,2.27-.72,12.77,22.08-1.56.49-2.84-4.88-7.39,2.33Zm-.19-1.43l6.91-2.18-8.33-14.25,1.42,16.43Z"/><path class="cls-1" d="m279.49,21.51l.36,1.45-6.24,1.55,2.72,10.93-1.59.39-6-24.12,9.17-2.28.36,1.45-7.58,1.89,2.56,10.3,6.24-1.55Z"/><path class="cls-1" d="m298.72,16.89l.28,1.47-6.67,1.26,1.93,10.19,8.03-1.52.28,1.47-9.63,1.82-4.63-24.43,9.63-1.82.28,1.47-8.03,1.52,1.86,9.84,6.67-1.26Z"/><path class="cls-1" d="m333.01,7.03l.17,1.84-1.56.14-.18-1.95c-.24-2.65-1.45-4.57-4.18-4.32-2.72.25-3.56,2.36-3.32,5.01l1.18,12.87c.24,2.65,1.45,4.54,4.17,4.29,2.72-.25,3.57-2.33,3.32-4.98l-.49-5.34-3.29.3-.14-1.49,4.85-.45.62,6.72c.33,3.57-.98,6.4-4.76,6.75-3.78.35-5.59-2.2-5.92-5.77l-1.16-12.66c-.33-3.57.98-6.4,4.76-6.75,3.78-.35,5.59,2.2,5.92,5.77Z"/><path class="cls-1" d="m344.23,25.17l-.86-24.85,1.63-.06.8,23.36,7.81-.27.05,1.49-9.44.32Z"/><path class="cls-1" d="m365.38,19.32l-1.38,5.47-1.49-.04,6.07-24.75,2.38.06,4.91,25.03-1.63-.04-1.1-5.53-7.74-.2Zm.28-1.41l7.24.18-3.25-16.18-4,15.99Z"/><path class="cls-1" d="m397.24,7.86l-.18,2.05-1.56-.14.19-2.16c.23-2.65-.62-4.76-3.34-5-2.72-.24-3.93,1.69-4.16,4.34l-1.13,12.88c-.23,2.65.62,4.73,3.34,4.96,2.72.24,3.92-1.65,4.16-4.31l.26-2.94,1.56.14-.25,2.83c-.31,3.57-2.11,6.13-5.89,5.8-3.79-.33-5.11-3.16-4.79-6.73l1.11-12.67c.31-3.57,2.11-6.13,5.89-5.8s5.11,3.16,4.79,6.73Z"/><path class="cls-1" d="m415.23,15.7l-.22,1.48-6.71-.99-1.51,10.26,8.08,1.19-.22,1.48-9.7-1.43,3.62-24.6,9.7,1.43-.22,1.48-8.08-1.19-1.46,9.91,6.71.99Z"/><path class="cls-1" d="m438.03,14.41l-.11.52-1.53-.32.13-.63c.53-2.57-.04-4.72-2.68-5.27-2.64-.55-4.01,1.16-4.55,3.74-1.22,5.91,7.55,7.84,6.16,14.55-.73,3.51-2.79,5.77-6.51,5s-4.72-3.66-3.99-7.17l.26-1.25,1.53.32-.28,1.36c-.54,2.61.08,4.7,2.76,5.25,2.68.55,4.08-1.11,4.62-3.72,1.21-5.84-7.57-7.77-6.16-14.55.76-3.65,2.85-5.69,6.44-4.98,3.69.76,4.65,3.65,3.92,7.16Z"/><path class="cls-1" d="m471.37,29.61l6.18,2.13-.49,1.41-6.18-2.13.49-1.41Z"/></g></svg>