<?xml version="1.0" encoding="UTF-8"?><svg id="Camada_1" xmlns="http://www.w3.org/2000/svg" viewBox="0 0 260.86 151.4"><path d="m239.61,35c7.3,1,11,5,11,8.8,0,2.6-1.9,4.4-4.6,4.4-2.4,0-4.4-1.9-4.4-4.4,0-2.8,2-4,2-5.2-.3-1.2-1.1-3-4-3.6m-4.3,0c-6.5,1-9.3,7.1-9.3,14.4,0,6.2,0,11,5.2,12.8-8.3-1.7-14.1-5.9-14.1-12.9,0-9.4,7.8-13.8,18.2-14.3m0,61.5c-12.4-.9-20.6-6.3-20.6-17.6,0-8.9,6.2-13.3,16-15.2-5.5,2.1-7.2,7.4-7.2,15.2.1,8.4,3.3,15.8,11.8,17.6"/><path d="m248.21,64.4c-8.6,2.8-16.3,4.8-16.3,8.9,0,0-.5-.6-.6-1.6-.8-7.1,6.9-9.5,15.2-12.3,9.3-3,13.7-4.6,13.7-8.5,0,0,.5.7.6,1.5.7,6.3-5.2,9.5-12.2,11.9m-8,32.2c6.5-1,9.3-7.1,9.3-14.4,0-6.2,0-11-5.2-12.8,8.3,1.7,14.1,5.9,14.1,12.9,0,9.5-7.8,13.8-18.2,14.3m-181.5-29.6c-4.4,1.6-13,4-22.3,4-11.7,0-20.6-3-27.2-9.3C3.41,55.8-.19,46.6,0,36.1,0,14.2,15.61.1,38.61.1c8.5,0,15.2,1.7,18.4,3.3l-2.8,10.2c-3.8-1.6-8.5-3-15.7-3-14.8,0-25.2,8.7-25.2,24.9s9.6,25.1,24.1,25.1c4.5,0,7.9-.6,9.5-1.4v-17.5h-12.4v-10h24.5l.1,35.2h0Zm33.6-21.3c-8.9-.2-17.4,1.7-17.4,9.3,0,4.9,3.1,7.2,7.2,7.2,5,0,8.7-3.3,9.9-6.9.2-.9.5-1.9.5-2.8l-.2-6.8h0Zm1.6,24.4l-.8-5.6h-.3c-3.1,4-8.4,6.7-14.8,6.7-10.1,0-15.7-7.3-15.7-14.9,0-12.7,11.2-19.1,29.8-18.9v-.8c0-3.3-1.4-8.7-10.2-8.7-4.9,0-10.1,1.5-13.5,3.7l-2.4-8.3c3.7-2.2,10.2-4.4,18.1-4.4,16,0,20.7,10.2,20.7,21v18.1c0,4.5.2,8.9.7,12.1h-11.6Zm62.7-15c0,5.9.2,10.9.5,15h-11.2l-.6-7.6h-.2c-2.2,3.6-7.1,8.7-16,8.7s-17.4-5.5-17.4-21.9v-29.3h12.7v27.2c0,8.4,2.7,13.7,9.4,13.7,5,0,8.4-3.6,9.6-6.7.5-1.2.7-2.4.7-4v-30.2h12.7l-.2,35.1h0Zm7.6,15h12.8V0h-12.8v70ZM201.31,5.6v14.3h12.1v9.5h-12.1v22.1c0,6,1.6,9.3,6.5,9.3,1.6,0,3.4-.2,4.9-.6l.2,9.6c-1.9.7-5.1,1.3-9.2,1.3-4.6,0-8.5-1.5-10.9-4.1-2.7-2.9-4-7.4-4-13.9v-23.7h-7.2v-9.4h7.2v-11.3l12.5-3.1h0ZM63.51,122.1c-.5-8.9-.9-19.8-.8-29.1h-.3c-2.4,8.9-5.1,17.8-8.3,26.5l-10,30h-9.8l-9.3-29.6c-2.7-8.8-5-17.9-7-27h-.2c-.3,9.9-.7,19.6-1.3,29.5l-1.5,27.9H3.21l4.6-69.3h16.6l9.1,27.9c2.4,7.9,4.5,15.9,6.4,24.1h.3c2-8.1,4.3-16.2,6.9-24.2l9.5-27.8h16.5l4.1,69.3h-12.4l-1.3-28.2h0Zm24.9,28.2h12.8v-50.1h-12.8v50.1Zm13.4-64c0,3.8-2.8,6.7-7.2,6.7s-7-3-7-6.7c0-4,2.9-6.9,7.1-6.9s7,2.9,7.1,6.9Zm10.8,64h12.8v-69.3h-12.8v69.3Zm24.3,0h12.8v-69.3h-12.8v69.3Zm51-24.5c-8.9-.2-17.4,1.7-17.4,9.3,0,4.9,3.1,7.2,7.2,7.2,5,0,8.7-3.3,9.9-6.9.2-.9.5-1.9.5-2.8-.2.2-.2-6.8-.2-6.8Zm1.6,24.5l-.8-5.6h-.3c-3.1,4-8.4,6.7-14.8,6.7-10.1,0-15.7-7.3-15.7-14.9,0-12.7,11.2-19.1,29.8-18.9v-.8c0-3.3-1.3-8.7-10.2-8.7-4.9,0-10.1,1.5-13.5,3.7l-2.4-8.3c3.7-2.2,10.2-4.4,18.1-4.4,16,0,20.7,10.2,20.7,21v18.1c0,4.5.2,8.9.7,12.1h-11.6Zm66.8-15c0,5.9.2,10.9.5,15h-11.2l-.6-7.6h-.2c-2.2,3.6-7.1,8.7-16,8.7s-17.4-5.5-17.4-21.9v-29.4h12.7v27.2c0,8.4,2.7,13.7,9.3,13.7,5,0,8.4-3.6,9.6-6.7.5-1.2.7-2.4.7-4v-30.2h12.7l-.1,35.2h0Z"/></svg>